Coordinates
version=1
nRows=13
nColumns=63
inDegrees=yes

Units are S.I. units (second, meters, Newtons, ...)
If the header above contains a line with 'inDegrees', this indicates whether rotational values are in degrees (yes) or radians (no).

endheader
time	pelvis_tilt	pelvis_list	pelvis_rotation	pelvis_tx	pelvis_ty	pelvis_tz	hip_flexion_r	hip_adduction_r	hip_rotation_r	knee_angle_r	knee_angle_r_beta	ankle_angle_r	subtalar_angle_r	mtp_angle_r	hip_flexion_l	hip_adduction_l	hip_rotation_l	knee_angle_l	knee_angle_l_beta	ankle_angle_l	subtalar_angle_l	mtp_angle_l	L5_S1_Flex_Ext	L5_S1_Lat_Bending	L5_S1_axial_rotation	L4_L5_Flex_Ext	L4_L5_Lat_Bending	L4_L5_axial_rotation	L3_L4_Flex_Ext	L3_L4_Lat_Bending	L3_L4_axial_rotation	L2_L3_Flex_Ext	L2_L3_Lat_Bending	L2_L3_axial_rotation	L1_L2_Flex_Ext	L1_L2_Lat_Bending	L1_L2_axial_rotation	L1_T12_Flex_Ext	L1_T12_Lat_Bending	L1_T12_axial_rotation	Abs_r3	Abs_r2	Abs_r1	Abs_t1	Abs_t2	neck_flexion	neck_bending	neck_rotation	arm_flex_r	arm_add_r	arm_rot_r	elbow_flex_r	pro_sup_r	wrist_flex_r	wrist_dev_r	arm_flex_l	arm_add_l	arm_rot_l	elbow_flex_l	pro_sup_l	wrist_flex_l	wrist_dev_l
0.000000	-1.653654	-2.315626	88.933690	0.212736	0.608088	0.722253	5.934109	-1.416456	-17.243214	6.934427	0.121029	12.956825	15.766839	0.000000	7.685886	1.850569	-10.105017	6.039251	0.105405	11.764688	-0.433752	0.000000	0.188097	-0.142161	0.401203	0.349316	-0.189074	0.426278	0.309025	-0.345651	0.426278	0.214977	-0.345651	0.351053	0.174667	-0.289895	0.325977	0.107479	-0.220208	0.300902	1.343561	-1.608156	2.231370	0.000000	0.000000	16.885390	2.949163	-0.445667	3.307796	-11.132950	38.243999	64.815141	85.821113	8.647673	25.722375	2.973422	-13.625418	33.653715	68.225475	86.208297	11.117120	19.079129
0.021739	-1.914184	-2.055121	89.506094	0.212605	0.609256	0.721346	5.384767	-1.691012	-17.714985	6.817651	0.118990	13.017795	15.489609	0.000000	7.210277	2.228367	-9.055637	5.640968	0.098453	11.590599	-0.902665	0.000000	0.171225	-0.178840	0.239449	0.317983	-0.237857	0.254415	0.281306	-0.434831	0.254415	0.195694	-0.434831	0.209518	0.159000	-0.364690	0.194552	0.097838	-0.277023	0.179587	1.223046	-2.023069	1.331744	0.000000	0.000000	15.471498	2.979771	0.104656	3.398678	-11.026864	38.232399	66.242011	86.915951	8.893326	24.561617	3.018953	-14.272429	34.055995	67.936600	87.127155	11.653469	18.939206
0.043478	-2.116362	-1.857596	89.917594	0.212471	0.610090	0.720677	4.978333	-1.908097	-18.031173	6.734653	0.117542	13.098339	15.298731	0.000000	6.841517	2.528753	-8.208510	5.327112	0.092976	11.468263	-1.342472	0.000000	0.158214	-0.205755	0.119909	0.293819	-0.273654	0.127404	0.259930	-0.500272	0.127404	0.180823	-0.500272	0.104921	0.146917	-0.419575	0.097426	0.090403	-0.318714	0.089932	1.130106	-2.327537	0.666900	0.000000	0.000000	14.434048	3.023731	0.565204	3.474882	-10.925070	38.256337	67.125001	87.109575	8.694626	23.746063	3.049186	-14.770988	34.332261	67.868024	87.823933	11.894574	18.611331
0.065217	-2.266874	-1.717277	90.184676	0.212345	0.610624	0.720226	4.701298	-2.073521	-18.206658	6.682463	0.116631	13.196341	15.180341	0.000000	6.570400	2.759245	-7.545969	5.090892	0.088853	11.390212	-1.755340	0.000000	0.148716	-0.224203	0.038110	0.276181	-0.298190	0.040491	0.244326	-0.545127	0.040491	0.169968	-0.545127	0.033346	0.138098	-0.457194	0.030964	0.084976	-0.347290	0.028582	1.062264	-2.536227	0.211954	0.000000	0.000000	13.738104	3.084123	0.939038	3.539482	-10.825626	38.301991	67.558589	86.536917	8.114627	23.234133	3.064575	-15.136377	34.490963	67.982235	88.321599	11.862717	18.125707
0.086957	-2.372408	-1.628389	90.323826	0.212239	0.610894	0.719973	4.540156	-2.193097	-18.256321	6.658115	0.116206	13.309685	15.120574	0.000000	6.387721	2.927363	-7.050347	4.925517	0.085966	11.348980	-2.143440	0.000000	0.142385	-0.235481	-0.010425	0.264423	-0.313190	-0.011076	0.233924	-0.572548	-0.011076	0.162732	-0.572548	-0.009121	0.132219	-0.480193	-0.008470	0.081359	-0.364760	-0.007818	1.017041	-2.663807	-0.057978	0.000000	0.000000	13.348728	3.164028	1.229214	3.595554	-10.726586	38.355542	67.637249	85.332906	7.216378	22.984251	3.065577	-15.383875	34.540550	68.241721	88.643120	11.580175	17.512534
0.108696	-2.439652	-1.585154	90.351530	0.212166	0.610933	0.719896	4.481400	-2.272636	-18.195043	6.658639	0.116215	13.436255	15.105569	0.000000	6.284273	3.040624	-6.703977	4.824195	0.084198	11.337100	-2.508940	0.000000	0.138874	-0.240885	-0.030167	0.257902	-0.320378	-0.032053	0.228156	-0.585689	-0.032053	0.158719	-0.585689	-0.026396	0.128958	-0.491214	-0.024511	0.079352	-0.373132	-0.022625	0.991961	-2.724944	-0.167781	0.000000	0.000000	13.230981	3.266526	1.438792	3.646171	-10.626007	38.403167	67.455457	83.632476	6.062931	22.954839	3.052650	-15.528763	34.489471	68.608971	88.811462	11.069230	16.802013
0.130435	-2.475293	-1.581799	90.284275	0.212138	0.610777	0.719975	4.511523	-2.317950	-18.037704	6.681067	0.116607	13.573934	15.121461	0.000000	6.250849	3.106548	-6.489193	4.780136	0.083429	11.347105	-2.854010	0.000000	0.137836	-0.241713	-0.025593	0.255974	-0.321478	-0.027192	0.226450	-0.587701	-0.027192	0.157532	-0.587701	-0.022394	0.127994	-0.492901	-0.020794	0.078759	-0.374414	-0.019195	0.984546	-2.734307	-0.142339	0.000000	0.000000	13.349925	3.394699	1.570830	3.694407	-10.521946	38.431045	67.107688	81.570556	4.717338	23.104319	3.026249	-15.586321	34.346176	69.046470	88.849594	10.352160	16.024344
0.152174	-2.486019	-1.612548	90.138546	0.212167	0.610462	0.720190	4.617018	-2.334851	-17.799185	6.722431	0.117329	13.720608	15.154387	0.000000	6.278244	3.132652	-6.388326	4.786548	0.083541	11.371528	-3.180818	0.000000	0.138924	-0.239260	-0.001175	0.257995	-0.318216	-0.001249	0.228238	-0.581738	-0.001249	0.158776	-0.581738	-0.001028	0.129005	-0.487900	-0.000955	0.079381	-0.370614	-0.000881	0.992318	-2.706562	-0.006537	0.000000	0.000000	13.670624	3.551626	1.628386	3.743339	-10.412457	38.425355	66.688420	79.282077	3.242651	23.391115	2.986832	-15.571830	34.119113	69.516709	88.780481	9.451246	15.209730
0.173913	-2.478517	-1.671624	89.930829	0.212265	0.610021	0.720521	4.784378	-2.329152	-17.494366	6.779762	0.118329	13.874159	15.190483	0.000000	6.357251	3.126455	-6.383711	4.836642	0.084415	11.402902	-3.491534	0.000000	0.141791	-0.234824	0.038611	0.263321	-0.312316	0.041024	0.232949	-0.570951	0.041024	0.162053	-0.570951	0.033785	0.131667	-0.478853	0.031371	0.081020	-0.363743	0.028958	1.012801	-2.656377	0.214743	0.000000	0.000000	14.158138	3.740389	1.614518	3.796039	-10.295598	38.372275	66.292126	76.901971	1.701920	23.773647	2.934854	-15.500569	33.816731	69.982173	88.627092	8.388766	14.388370
0.195652	-2.459475	-1.753253	89.677611	0.212444	0.609490	0.720947	5.000096	-2.306663	-17.138128	6.850092	0.119557	14.032471	15.215886	0.000000	6.478664	3.095476	-6.457681	4.923624	0.085933	11.433761	-3.788327	0.000000	0.146091	-0.229701	0.089292	0.271306	-0.305502	0.094873	0.240013	-0.558494	0.094873	0.166968	-0.558494	0.078130	0.135660	-0.468406	0.072550	0.083477	-0.355806	0.066969	1.043516	-2.598421	0.496614	0.000000	0.000000	14.777531	3.964068	1.532285	3.855584	-10.169424	38.257984	66.013284	74.565169	0.158197	24.210339	2.870772	-15.387819	33.447481	70.405352	88.412392	7.187001	13.590466
0.217391	-2.435581	-1.851658	89.395377	0.212717	0.608903	0.721446	5.250665	-2.273197	-16.745351	6.930453	0.120959	14.193430	15.216733	0.000000	6.633277	3.047233	-6.592568	5.040706	0.087977	11.456638	-4.073366	0.000000	0.151477	-0.225187	0.146393	0.281308	-0.299499	0.155543	0.248862	-0.547520	0.155543	0.173123	-0.547520	0.128094	0.140662	-0.459201	0.118944	0.086554	-0.348815	0.109795	1.081987	-2.547360	0.814194	0.000000	0.000000	15.493864	4.225743	1.384745	3.925046	-10.031990	38.068661	65.946368	72.406602	-1.325466	24.659613	2.795044	-15.248860	33.019810	70.748732	88.159351	5.868230	12.846219
0.239130	-2.426470	-1.966953	89.147212	0.213184	0.608361	0.721994	5.520712	-2.240672	-16.363600	7.013118	0.122402	14.352299	15.121408	0.000000	6.820885	2.992410	-6.808402	5.181303	0.090431	11.446282	-4.252431	0.000000	0.157135	-0.226568	0.208923	0.291815	-0.301336	0.221980	0.258157	-0.550878	0.221980	0.179590	-0.550878	0.182807	0.145915	-0.462018	0.169750	0.089787	-0.350954	0.156692	1.122399	-2.562986	1.161965	0.000000	0.000000	16.283798	4.551032	1.079285	3.865008	-9.828817	37.476448	66.537834	71.185358	-2.701049	24.961842	2.739692	-15.119288	32.541924	70.999574	87.967821	4.450542	12.396088
0.260870	-2.462911	-2.075264	88.889701	0.213866	0.607867	0.722553	5.782218	-2.242713	-15.940655	7.106400	0.124030	14.527902	14.925627	0.000000	7.008859	2.970441	-7.070725	5.343140	0.093255	11.370162	-4.485141	0.000000	0.163672	-0.236482	0.251891	0.303956	-0.314521	0.267634	0.268897	-0.574982	0.267634	0.187061	-0.574982	0.220405	0.151986	-0.482234	0.204662	0.093522	-0.366310	0.188918	1.169094	-2.675129	1.400943	0.000000	0.000000	17.032965	4.975692	0.800625	3.882110	-9.638943	36.998288	67.556489	70.668286	-3.898708	24.997205	2.566669	-15.046923	31.822843	71.196480	87.838268	3.143097	12.296013
